<?xml version="1.0" encoding="UTF-8" standalone="no"?>
<!-- Created with Inkscape (http://www.inkscape.org/) -->

<svg
   xmlns:dc="http://purl.org/dc/elements/1.1/"
   xmlns:cc="http://creativecommons.org/ns#"
   xmlns:rdf="http://www.w3.org/1999/02/22-rdf-syntax-ns#"
   xmlns:svg="http://www.w3.org/2000/svg"
   xmlns="http://www.w3.org/2000/svg"
   xmlns:sodipodi="http://sodipodi.sourceforge.net/DTD/sodipodi-0.dtd"
   xmlns:inkscape="http://www.inkscape.org/namespaces/inkscape"
   width="300"
   height="300"
   id="svg3005"
   version="1.1"
   inkscape:version="0.91 r"
   sodipodi:docname="philodendron-02.svg">
  <title
     id="title4173">Philodendron</title>
  <defs
     id="defs3007">
    <filter
       inkscape:collect="always"
       style="color-interpolation-filters:sRGB"
       id="filter4450"
       x="-0.0078342369"
       width="1.0156685"
       y="-0.02562669"
       height="1.0512534">
      <feGaussianBlur
         inkscape:collect="always"
         stdDeviation="0.90767889"
         id="feGaussianBlur4452" />
    </filter>
  </defs>
  <sodipodi:namedview
     id="base"
     pagecolor="#ffffff"
     bordercolor="#666666"
     borderopacity="1.0"
     inkscape:pageopacity="0.0"
     inkscape:pageshadow="2"
     inkscape:zoom="2.0366667"
     inkscape:cx="150"
     inkscape:cy="150"
     inkscape:document-units="px"
     inkscape:current-layer="layer1"
     showgrid="false"
     inkscape:window-width="1215"
     inkscape:window-height="776"
     inkscape:window-x="65"
     inkscape:window-y="24"
     inkscape:window-maximized="1"
     inkscape:snap-global="false" />
  <metadata
     id="metadata3010">
    <rdf:RDF>
      <cc:Work
         rdf:about="">
        <dc:format>image/svg+xml</dc:format>
        <dc:type
           rdf:resource="http://purl.org/dc/dcmitype/StillImage" />
        <dc:title>Philodendron</dc:title>
        <dc:date>Novembro 2015</dc:date>
        <dc:creator>
          <cc:Agent>
            <dc:title>jpenrici</dc:title>
          </cc:Agent>
        </dc:creator>
        <dc:publisher>
          <cc:Agent>
            <dc:title>Open Clip Art Library</dc:title>
          </cc:Agent>
        </dc:publisher>
        <cc:license
           rdf:resource="http://creativecommons.org/publicdomain/zero/1.0/" />
        <dc:subject>
          <rdf:Bag>
            <rdf:li>plant</rdf:li>
            <rdf:li>flora</rdf:li>
            <rdf:li>nature</rdf:li>
            <rdf:li>clip art</rdf:li>
            <rdf:li>clipart</rdf:li>
            <rdf:li>svg</rdf:li>
          </rdf:Bag>
        </dc:subject>
      </cc:Work>
      <cc:License
         rdf:about="http://creativecommons.org/publicdomain/zero/1.0/">
        <cc:permits
           rdf:resource="http://creativecommons.org/ns#Reproduction" />
        <cc:permits
           rdf:resource="http://creativecommons.org/ns#Distribution" />
        <cc:permits
           rdf:resource="http://creativecommons.org/ns#DerivativeWorks" />
      </cc:License>
    </rdf:RDF>
  </metadata>
  <g
     inkscape:label="Camada 1"
     inkscape:groupmode="layer"
     id="layer1"
     transform="translate(0,-752.36218)">
    <g
       id="g4454"
       transform="matrix(1,0,0,1.0750821,1.6108096,-85.82058)">
      <path
         inkscape:transform-center-y="-31.011843"
         inkscape:transform-center-x="-1.58845"
         style="fill:#4d4d4d;fill-opacity:1;fill-rule:evenodd;stroke:none;stroke-width:1px;stroke-linecap:butt;stroke-linejoin:miter;stroke-opacity:1;filter:url(#filter4450)"
         d="m 225.35483,921.34732 c -1.56632,0.0677 -3.1497,0.41625 -4.18147,0.93152 -1.18037,0.58948 2.34899,11.31548 -3.58952,13.20605 -0.17648,-0.0167 -0.33751,-0.0506 -0.49197,-0.0922 -1.03131,-1.3587 0.11818,-3.88825 -1.21784,-5.09973 l -1e-5,-7.5e-4 c -0.15523,-0.14077 -0.49491,-0.22248 -0.95429,-0.25869 0.0102,-2.91308 0.41464,-6.16962 -0.65798,-7.53705 -0.4849,-0.61818 -2.29052,-0.64348 -4.29216,-0.35461 -2.00164,0.28889 -4.19958,0.89159 -5.46608,1.52868 -0.45761,0.2302 2.09588,3.86411 3.18925,7.29112 -0.60924,0.15109 -1.179,0.30702 -1.62233,0.46406 -0.43225,0.15313 1.22946,1.48962 2.02401,2.98811 -0.14994,0.76945 -0.52561,1.42839 -1.23085,1.89732 -4.93057,0.70403 -6.13418,-9.35592 -9.1481,-11.21517 -1.81852,-1.12184 -5.3813,0.46606 -6.65837,1.89453 -0.12956,0.14492 2.65418,2.84433 4.61547,5.75272 -1.30295,0.33367 -2.5657,0.87154 -3.25996,1.3628 -0.18695,0.1323 3.47162,2.59677 4.09633,4.76951 -4.3149,0.5857 -8.47529,-8.25699 -11.811,-9.617 -2.05353,-0.83725 -6.82215,0.96697 -6.04317,2.57124 0.87237,1.79666 1.65035,3.29435 2.33847,4.67537 -0.95727,0.37669 -1.57945,0.83403 -1.32813,1.24003 0.74231,1.19911 1.42822,2.21234 2.00314,3.11802 -1.26496,-0.34742 -4.03585,-2.16067 -9.15322,-6.02403 -2.06586,-1.55964 -11.88614,3.58549 -7.06063,3.97328 2.31229,0.18581 3.76979,0.69317 4.62937,1.30356 -3.38396,0.76281 -7.52532,2.65334 -4.14943,2.70746 1.69425,0.0272 3.03735,0.19268 4.08144,0.42815 -1.48432,0.45516 -4.29421,-0.81143 -10.11841,-0.94939 -7.67918,7.74529 -17.42208,9.13509 -22.35079,23.74852 l 0.21086,-5.85061 c 0,0 6.51044,-4.92389 5.994,-7.48887 -0.78422,-3.89488 -13.43976,-10.17909 -13.43976,-10.17909 0,0 -0.18333,0.23044 -0.26731,0.33148 l -0.44365,-0.38636 c 0,0 -7.65337,4.76943 -7.86932,7.27413 -0.30185,3.50097 8.63613,8.5603 10.75807,9.71024 -0.008,0.007 -0.0813,0.0771 -0.0813,0.0771 l 0.82774,4.86302 c -6.31449,-10.91931 -15.10917,-11.65963 -22.8606,-17.55907 -5.86886,0.53634 -8.23975,2.00259 -9.6102,1.33556 -0.3384,-0.1668 -0.61425,-0.44604 -0.74712,-0.78355 0.96468,-0.24787 2.27137,-0.46265 3.98287,-0.58685 2.70938,-0.1966 -0.0143,-1.03385 -2.88707,-1.46934 0.7636,-0.46047 1.94544,-0.86684 3.70008,-1.12137 4.40921,-0.63962 -5.296516,-4.40698 -7.012386,-2.94282 -6.78916,5.7932 -8.700628,6.74382 -8.571598,5.06529 0.423218,-0.65545 0.937758,-1.39122 1.480797,-2.25815 0.128623,-0.20531 -0.146633,-0.40407 -0.636739,-0.57576 0.477448,-1.26959 1.06356,-2.7169 1.68543,-4.40944 0.52175,-1.42004 -4.104748,-2.65607 -5.898278,-1.80971 -3.030068,1.42991 -5.88386,9.83531 -10.215371,8.90701 -0.142949,-0.12834 -0.254281,-0.27241 -0.350307,-0.42358 0.351461,-1.52463 3.390224,-3.40091 3.202967,-3.48097 -0.60689,-0.25944 -1.61418,-0.51334 -2.68127,-0.68006 1.409056,-2.82992 4.040767,-5.728 3.89193,-5.85301 -1.355614,-1.13848 -4.842692,-2.26693 -6.384069,-1.19251 -2.554592,1.78067 -2.426539,10.44946 -7.067363,10.16325 -0.967323,-0.48484 -1.406137,-1.31414 -1.53967,-2.29561 0.5634,-0.66087 1.133516,-1.16682 0.844379,-1.22305 -0.248547,-0.0484 -0.55129,-0.0925 -0.857085,-0.13686 0.322472,-3.19551 2.670223,-7.10764 2.175373,-7.29127 -1.248325,-0.4632 -3.353795,-0.83827 -5.23818,-0.95709 -1.884385,-0.11881 -3.548568,0.0189 -3.920254,0.57788 -0.912262,1.37202 0.142538,4.61476 0.424568,7.28539 -0.887811,0.034 -1.569787,0.12015 -1.774374,0.29073 -1.103315,0.91947 0.307693,2.62627 -0.547929,3.61356 -5.187628,-1.60544 -3.381408,-10.5174 -4.51401,-10.9343 -2.323394,-0.85524 -7.199613,-0.78309 -8.192903,0.95085 -0.671005,1.17134 1.060512,3.78542 2.229612,6.20335 -1.636631,0.0601 -3.094604,0.29079 -3.557728,0.74383 -0.940246,0.91981 1.578205,2.33525 0.525524,3.22457 -3.600031,-2.41408 -4.509891,-8.75949 -5.480639,-8.96234 -2.272572,-0.47489 -6.074228,0.25097 -6.9707,1.81732 -0.524305,0.91613 0.309982,2.84207 0.971573,4.6989 -1.021398,0.17146 -1.862383,0.42442 -2.20283,0.75779 -0.749882,0.73433 0.882594,2.16309 0.530547,3.05116 -3.071841,-1.80163 -3.490035,-4.90909 -5.752089,-6.36693 -1.234792,-0.79579 -4.795543,0.63269 -4.728785,1.83131 0.06614,1.18831 0.140552,2.08241 0.180569,2.79342 -0.756372,0.20569 -1.31752,0.47434 -1.270315,0.72918 0.139371,0.75238 0.35099,1.26753 0.53272,1.6946 -0.175692,0.0786 -0.38366,0.14353 -0.640078,0.19998 -1.622062,0.34838 0.290454,-1.35713 -4.936551,-2.69054 -4.4789709,-1.1426 -8.0547089,4.06817 -12.17466451,6.52937 10.90899251,-0.33027 21.85902351,-0.61952 32.96391251,-0.75598 24.874542,-0.0932 47.397055,0.94958 76.982034,2.89075 11.53136,2.48728 21.38336,10.86015 23.88208,27.81292 -3.43523,-6.54578 -7.62179,-9.44239 -12.02909,-11.44489 0.16189,0.003 0.32622,0.005 0.48803,0.007 -0.78042,-0.2171 -1.52581,-0.48549 -2.26201,-0.76536 -3.21225,-1.30675 -6.50179,-2.34157 -9.6709,-4.13213 -4.51751,0.47346 -6.5108,1.41048 -7.73864,1.24177 0.77717,-0.20941 1.79784,-0.39775 3.11392,-0.52779 2.62283,-0.25918 -0.89785,-1.09801 -3.65409,-1.32132 0.57533,-0.41851 1.63272,-0.81688 3.40537,-1.08223 3.70113,-0.55404 -4.75375,-2.93533 -6.121586,-1.87418 -3.38773,2.62808 -5.26603,3.88684 -6.1982,4.17765 0.30731,-0.57405 0.68342,-1.21886 1.07552,-1.97758 0.13266,-0.2567 -0.42623,-0.48343 -1.22969,-0.6417 0.3218,-0.86327 0.69584,-1.80218 1.09689,-2.92409 0.35779,-1.00091 -3.638379,-1.74665 -5.108918,-1.11344 -2.388765,1.02859 -4.256605,6.53658 -7.711198,6.48047 0.149594,-1.32656 2.617257,-3.02968 2.450977,-3.09531 -0.617725,-0.24379 -1.685101,-0.47731 -2.75292,-0.58684 1.076684,-1.85115 2.827472,-3.63435 2.703965,-3.71129 -1.217532,-0.7586 -4.241292,-1.45713 -5.484398,-0.6715 -2.060251,1.3021 -1.435442,7.33025 -5.388207,7.24585 -0.625783,-0.23095 -1.010974,-0.60313 -1.247028,-1.05106 0.390955,-0.93478 1.464454,-1.8294 1.105362,-1.89055 -0.370133,-0.063 -0.837756,-0.1163 -1.336369,-0.16462 0.319305,-2.09987 1.746213,-4.42027 1.353661,-4.52558 -1.086278,-0.29142 -2.894704,-0.50016 -4.499857,-0.53623 -1.60516,-0.036 -3.008316,0.10057 -3.290188,0.49861 -0.623517,0.88067 0.199232,2.77882 0.659992,4.50046 -0.352685,0.0523 -0.605187,0.12346 -0.704339,0.21716 -0.852936,0.80607 0.43629,2.22409 -0.155781,3.09683 -0.114242,0.0353 -0.235731,0.0659 -0.371153,0.0878 -4.922906,-0.71806 -3.838113,-7.29705 -4.84984,-7.56612 -2.021368,-0.53759 -6.153236,-0.36673 -6.892201,0.86424 -0.442787,0.73758 0.785386,2.22074 1.862043,3.70004 -0.922114,0.12023 -1.656217,0.32152 -1.919819,0.61705 -0.78887,0.88444 1.943733,2.19075 0.408464,2.97009 -3.522891,-1.39299 -4.734675,-6.16795 -5.606078,-6.29016 -1.955581,-0.27422 -5.137804,0.32452 -5.804648,1.43651 -0.362657,0.60473 0.324654,1.78891 0.96303,2.97744 -0.466506,0.14196 -0.83129,0.31009 -1.004133,0.50407 -0.60276,0.67651 1.04771,1.94896 0.649914,2.71582 -3.329051,-1.08836 -3.786666,-3.51339 -5.951843,-4.54818 -1.09463,-0.52316 -4.030435,0.55871 -3.90235,1.39104 0.136286,0.88558 0.259565,1.53284 0.334149,2.04078 -0.235397,0.12805 -0.370567,0.26157 -0.336181,0.38671 0.08843,0.32186 0.194692,0.59031 0.301216,0.83678 -0.140921,0.27067 -0.438283,0.41732 -0.990448,0.53498 -1.354813,0.28248 0.165924,-0.95222 -4.346405,-1.75072 -3.866557,-0.68422 -6.589889,3.02983 -9.937061,4.8441 0.07002,-0.004 0.140399,-0.007 0.210376,-0.0121 -0.03432,0.0125 -0.06804,0.0267 -0.102544,0.039 31.553321,-1.9891 64.304079,-1.21819 95.910464,-0.76762 8.84918,2.01269 16.45561,7.61994 19.28567,18.35464 -19.44549,-15.57174 -26.87543,-11.96779 -38.475316,-14.57168 -3.595343,1.57854 -4.337004,2.97208 -5.627759,2.8616 -1.279643,-0.11417 -2.910466,-1.52824 0.434544,-3.26052 2.566375,-1.32906 -6.029419,-1.53247 -6.33605,-0.28044 -2.118083,8.64854 -2.756611,5.22344 -5.256219,-0.0263 -0.461924,-0.97017 -4.240243,-0.72872 -4.950326,0.16625 -1.199631,1.51217 1.689931,7.20439 -1.717718,7.56869 -3.414991,-0.9559 -2.965562,-7.1081 -3.243824,-7.1797 -1.549394,-0.3987 -4.509506,-0.33598 -4.922121,0.64311 -0.683837,1.62266 4.339029,6.83789 1.091453,7.65659 -4.019911,-0.3781 -5.174937,-6.74481 -5.820593,-6.75269 -1.093509,-0.0134 -2.70634,0.21019 -4.026484,0.54105 -1.320144,0.33087 -2.348728,0.76977 -2.27741,1.18724 0.307747,1.8015 7.962799,5.8004 5.462482,7.1496 -4.50404,0.4751 -8.561114,-5.6152 -9.577816,-5.6255 -2.031313,-0.021 -5.232546,1.0649 -4.90527,2.3257 0.422566,1.6278 9.70138,4.5681 7.480676,6.322 -4.119195,0.9591 -10.051097,-4.35 -10.967283,-4.2479 -1.780936,0.1985 -3.894114,1.4504 -3.597913,2.5891 0.360446,1.3857 7.127425,4.1553 5.565752,5.3906 -3.755174,-0.06 -6.012203,-2.2702 -8.634959,-2.7175 -1.273924,-0.2173 -2.828406,1.408 -2.101411,2.1186 2.584052,2.5255 3.282369,2.8932 2.290364,3.5312 -0.879707,0.5573 -0.579448,-0.8826 -4.813016,-0.5718 -3.627695,0.2662 -3.037271,4.1809 -4.373962,6.5497 2.975917,-1.0665 5.96483,-2.1281 8.968357,-3.186 -2.528695,0.9759 -4.96694,1.9306 -7.197463,2.8284 4.03954,0.099 8.335359,1.4034 11.968813,0.06 3.733426,-1.3801 5.622677,-2.7399 6.820208,-2.7635 1.186231,-0.02 1.365413,1.283 -2.163678,2.7508 -2.707582,1.126 5.379888,0.5992 5.933949,-0.2974 3.827203,-6.1934 3.708141,-3.8563 4.965184,-0.3913 0.23231,0.6405 3.858243,0.1786 4.718603,-0.5006 1.453543,-1.1474 -0.509271,-4.1915 2.790581,-4.7107 3.028382,0.4007 1.735264,4.0252 1.983349,4.0534 1.381352,0.1573 4.193321,-0.116 4.790053,-0.831 0.988985,-1.1843 -1.841304,-3.4223 1.402963,-4.2456 3.72237,-0.049 2.653846,3.292 3.262896,3.2473 2.062893,-0.1516 6.283863,-1.1238 6.325039,-1.6945 0.08884,-1.2319 -4.064916,-2.5946 -1.415562,-3.7296 4.360186,-0.6815 4.670971,2.4184 5.630422,2.3466 1.916896,-0.1437 5.172994,-1.1492 5.129335,-2.0026 -0.05637,-1.1017 -4.445995,-1.6586 -1.975719,-3.0539 4.098269,-0.989 4.823144,1.4793 5.711225,1.3368 1.726308,-0.2769 3.990218,-1.3139 3.950198,-2.0846 -0.0487,-0.9379 -3.959243,-1.9264 -2.22167,-2.9089 3.53899,-0.2501 3.30098,0.6993 5.68728,0.8071 1.15906,0.053 2.972306,-1.2023 2.434546,-1.641 -1.911456,-1.5595 -3.189966,-1.7366 -2.117166,-2.2585 0.949566,-0.4569 1.056506,0.5457 5.126206,-4e-4 3.03193,-0.4067 0.93856,-1.7232 1.49826,-3.2134 7.82247,1.0316 16.62288,4.8629 25.36918,12.8024 -0.13927,0.115 -0.22022,0.1943 -0.37662,0.3193 -4.51146,3.4255 -14.31558,2.5219 -20.20444,4.6093 -5.87457,1.7774 23.66884,1.0608 26.02106,0.9908 3.12931,-0.1482 13.58574,0.1464 12.76927,-1.6778 -2.02673,-1.8536 -6.26021,-2.721 -9.38717,-4.0149 -0.0921,-1.0653 -0.15971,-2.1063 -0.20528,-3.126 l 0.25664,-0.085 c -0.10186,-0.7013 -0.21364,-1.3639 -0.3229,-2.0343 -0.008,-0.567 8.6e-4,-1.1177 0.008,-1.6698 0.59756,-2.2544 1.41091,-4.3048 2.40217,-6.1701 3.93515,1.0963 5.11591,0.1618 5.68729,0.732 0.64049,0.6506 -0.97015,0.6358 -4.74877,1.8452 -1.06305,0.3402 -0.37449,1.7942 0.97039,1.9108 2.76888,0.24 3.51033,-0.6981 7.18231,0.048 0.89188,1.1843 -4.50493,1.5638 -5.55275,2.4492 -0.8611,0.7276 0.55824,2.0393 2.18523,2.5506 0.837,0.2631 4.25774,-1.9807 7.76894,-0.4511 1.26964,1.6823 -4.20387,1.5816 -5.43399,2.6218 -0.95271,0.8057 1.6043,2.2297 3.58451,2.6416 0.99115,0.2061 4.62039,-2.6985 8.74875,-1.424 1.74474,1.4603 -4.31917,2.16 -5.52546,3.3447 -0.55906,0.5492 3.10678,2.0807 5.24103,2.5211 0.63012,0.1301 2.98244,-3.2027 7.07128,-2.6214 2.7367,1.2491 -2.78414,2.9716 -2.93874,4.2404 -0.0933,0.7656 2.7454,1.4305 4.44883,1.479 0.30593,0.01 2.70597,-3.6256 6.49936,-3.5721 3.12094,0.9677 -2.28588,3.5823 -1.8846,4.8827 0.23752,0.7699 3.77943,1.7302 4.71629,1.1544 5.06962,-3.1165 7.41636,-5.3574 5.11193,1.085 -0.33362,0.9327 8.10365,2.595 6.28472,1.1347 -2.37081,-1.9032 -0.79114,-3.1169 0.50731,-2.9277 1.30738,0.1943 1.96843,1.7593 4.65947,3.6085 2.61899,1.7995 10.3131,1.762 14.91212,2.2473 -0.0859,-0.066 -0.18614,-0.1389 -0.27294,-0.2053 0.10515,0.068 0.2267,0.1451 0.33043,0.2137 1.02264,-2.4458 5.8284,-6.0863 2.07495,-6.8605 -4.38036,-0.9035 -5.5732,0.5098 -5.96136,-0.1468 -0.42758,-0.7495 0.73842,-0.9995 6.28886,-3.0315 1.56148,-0.5718 1.55603,-2.3415 -0.0914,-2.3174 -3.39169,0.05 -8.24398,1.8275 -12.48535,1.3458 -0.42845,-1.3996 10.03376,-3.0629 11.90285,-4.3295 1.53599,-1.041 0.51026,-2.5353 -1.26062,-2.9799 -0.91101,-0.2287 -13.13298,3.9704 -16.69919,2.4663 -0.61211,-1.9877 12.82371,-3.4525 15.01844,-4.9407 1.69986,-1.1526 -0.71091,-2.645 -2.99246,-2.917 -1.14195,-0.1361 -12.10912,5.0765 -16.61627,3.9778 -1.35203,-1.6427 11.40142,-4.3495 13.65247,-6.0194 0.52162,-0.387 -0.15547,-0.9521 -1.2735,-1.4565 -1.11805,-0.5043 -2.67666,-0.9484 -3.90724,-1.0928 -0.7266,-0.085 -8.75709,5.8071 -13.62964,5.5898 -2.74531,-1.2453 8.36685,-5.4866 9.32533,-7.1288 0.57833,-0.99083 -2.64814,-1.47506 -4.79419,-1.31816 -0.38542,0.0281 -6.40224,5.94626 -11.21401,6.36546 -3.40479,-0.8359 5.84008,-5.83669 6.1077,-7.44773 0.15841,-0.95359 -3.79036,-1.72605 -5.33212,-0.86928 -8.34282,4.63621 -12.68085,7.80261 -5.8739,-0.73044 0.98542,-1.23533 -8.79324,-2.27568 -7.34644,-0.64262 1.88577,2.12851 -1.42591,3.24027 -2.97042,3.16518 -1.5529,-0.0802 -0.90196,-1.51259 -3.22911,-3.53075 -2.62791,-0.24016 -11.68585,-0.0542 -15.16964,0.76929 3.83379,-4.5488 9.03213,-7.51403 14.81568,-9.18086 37.44436,-2.70221 76.21014,-5.85712 113.8525,-5.70201 -0.042,-0.0119 -0.0829,-0.0263 -0.12476,-0.0386 0.083,-2e-5 0.16645,-0.001 0.24945,-0.001 -4.16445,-1.89176 -7.78932,-6.04864 -12.30271,-4.98221 -5.26719,1.24454 -3.33215,2.58304 -4.96946,2.34584 -0.6653,-0.0993 -1.03822,-0.24606 -1.23487,-0.55083 0.10077,-0.2971 0.19839,-0.6201 0.26941,-1.00534 0.0274,-0.14863 -0.14657,-0.29608 -0.43916,-0.4296 0.0343,-0.59931 0.11103,-1.36406 0.17802,-2.40945 0.063,-0.98235 -3.53603,-2.04596 -4.77855,-1.35871 -2.45763,1.35935 -2.74039,4.22702 -6.57261,5.72921 -0.554,-0.86962 1.26535,-2.47158 0.47799,-3.22143 -0.22567,-0.21491 -0.67516,-0.3862 -1.24337,-0.52013 0.63018,-1.43421 1.31788,-2.86641 0.823,-3.54885 -0.90991,-1.25478 -4.74815,-1.73684 -7.03856,-1.28149 -1.02061,0.20289 -1.94672,5.87176 -5.9767,7.74353 -1.9058,-0.80581 1.19858,-2.52137 0.16812,-3.5017 -0.34447,-0.32771 -1.23894,-0.51372 -2.34647,-0.59077 1.1189,-1.80428 2.41956,-3.62353 1.8155,-4.45573 -1.0082,-1.38899 -5.92938,-1.30407 -8.26967,-0.53616 -1.17135,0.38436 0.81899,8.00559 -4.94383,9.18429 -0.1627,-0.0163 -0.30996,-0.0436 -0.44906,-0.0769 -0.79715,-0.97992 0.58182,-2.72784 -0.51645,-3.61225 -0.12756,-0.1027 -0.43347,-0.16831 -0.8569,-0.20527 0.3624,-2.04572 1.13367,-4.32252 0.29977,-5.30987 -0.37692,-0.44636 -2.0557,-0.50949 -3.9559,-0.35683 -1.90019,0.15267 -4.02164,0.52099 -5.27902,0.93661 -0.45431,0.15018 1.48525,2.76583 2.08881,5.19979 -0.58647,0.0909 -1.13512,0.18576 -1.56755,0.28499 -0.42134,0.0968 0.96443,1.07722 1.52318,2.14948 -0.23299,0.5365 -0.6626,0.98985 -1.37653,1.30144 -4.67978,0.37074 -4.5842,-6.72355 -7.16732,-8.1048 -1.55859,-0.83341 -5.07091,0.19218 -6.43404,1.16324 -0.13829,0.0985 2.12952,2.06382 3.60463,4.15525 -1.25433,0.20166 -2.49522,0.54749 -3.20156,0.87501 -0.19023,0.0882 2.91895,1.91108 3.23829,3.45244 -4.09273,0.30514 -6.89577,-6.01041 -9.8397,-7.04928 -1.81207,-0.63947 -6.47495,0.5072 -5.94351,1.65331 0.59561,1.28454 1.14103,2.35709 1.61504,3.34461 -0.9364,0.24043 -1.57454,0.54429 -1.38971,0.83546 0.54635,0.86064 1.06246,1.58917 1.48841,2.23958 -1.1364,-0.27537 -3.49845,-1.61831 -7.79951,-4.46018 -1.73602,-1.14707 -11.51181,2.21973 -7.06224,2.61308 2.13153,0.18843 3.42996,0.58165 4.15708,1.03169 -3.24575,0.45078 -7.33483,1.67487 -4.19555,1.79754 1.57568,0.0616 2.80746,0.21112 3.75189,0.40269 -1.43838,0.28204 -3.90412,-0.67766 -9.31387,-0.92058 -3.57879,2.31966 -7.38156,3.75782 -11.06281,5.51474 -0.83274,0.37258 -1.67685,0.73225 -2.56752,1.03586 0.19087,-0.0126 0.38462,-0.0281 0.57554,-0.0416 -3.09284,1.63218 -6.0468,3.66712 -8.65065,6.83201 2.41336,-8.89192 7.35654,-14.89187 13.5875,-18.50975 30.47463,-4.1901 47.55943,-10.11071 82.09993,-12.66977 10.80316,-0.64907 22.90353,-1.05276 37.39982,-1.25416 1.32717,-8.2e-4 2.64132,-0.004 4.01015,0.003 -0.0544,-0.0177 -0.10787,-0.0394 -0.16219,-0.0578 0.0987,-0.002 0.18742,-0.003 0.28634,-0.004 -4.7972,-2.52257 -9.43584,-8.27653 -14.06042,-6.59278 -5.39696,1.96499 -3.0837,3.78939 -4.87638,3.51567 -0.72872,-0.11531 -1.1523,-0.30962 -1.41857,-0.7338 0.0529,-0.4251 0.0971,-0.88657 0.10189,-1.43558 0.002,-0.21155 -0.21362,-0.41327 -0.55027,-0.59126 -0.074,-0.85089 -0.1319,-1.93819 -0.25315,-3.42305 -0.1138,-1.39482 -4.15281,-2.76565 -5.35337,-1.74412 -2.37455,2.02046 -2.15077,6.09553 -5.96701,8.37099 -0.7511,-1.21165 0.89736,-3.55105 -0.0817,-4.58366 -0.28142,-0.2968 -0.78914,-0.526 -1.42314,-0.69427 0.40853,-2.05532 0.87853,-4.10898 0.2246,-5.05667 -1.2033,-1.74384 -5.39197,-2.28024 -7.75464,-1.54746 -1.05343,0.32673 -0.99802,8.40616 -4.96488,11.20841 -2.19153,-1.06836 0.82319,-3.62435 -0.459,-4.97536 -0.42811,-0.45107 -1.41645,-0.6793 -2.61266,-0.74645 0.86264,-2.60046 1.91324,-5.22898 1.11444,-6.38569 -0.74982,-1.0858 -2.73556,-1.46281 -4.74939,-1.37577 z"
         id="path4448"
         inkscape:connector-curvature="0" />
      <g
         id="g4306">
        <path
           style="fill:#44aa00;fill-opacity:1;fill-rule:evenodd;stroke:none;stroke-width:1px;stroke-linecap:butt;stroke-linejoin:miter;stroke-opacity:1"
           d="m 141.08504,982.29254 c -4.85615,8.7085 -15.19628,5.70914 -21.47389,10.81543 -6.25453,4.29314 24.98987,4.29635 27.47777,4.26245 3.31121,-0.18833 14.35391,1.25186 13.53779,-3.59091 -2.49105,-5.94351 -8.32464,-8.41529 -11.53045,-13.31812 -6.57677,-5.83956 -2.87657,-7.86666 -8.01122,1.83115 z"
           id="path4301"
           inkscape:connector-curvature="0"
           sodipodi:nodetypes="cccccc" />
        <g
           id="g4297"
           style="stroke:none"
           transform="matrix(1,0,0,0.749329,-0.49099836,231.99442)">
          <path
             sodipodi:nodetypes="csccc"
             inkscape:connector-curvature="0"
             id="path4295"
             d="m 141.65394,848.06136 c 0,0 -5.50807,13.43649 -5.8006,20.00064 -0.46369,10.40467 8.9059,25.47768 8.9059,25.47768 l 9.26457,-17.42731 z"
             style="fill:#b3ff80;fill-opacity:1;fill-rule:evenodd;stroke:none;stroke-width:1.13878191px;stroke-linecap:butt;stroke-linejoin:miter;stroke-opacity:1" />
          <path
             sodipodi:nodetypes="ccscssccc"
             inkscape:connector-curvature="0"
             id="path4293"
             d="m 148.93033,931.61587 0.89002,-36.49089 c 0,0 3.62721,-13.21387 3.14722,-19.98301 -0.72886,-10.27884 -10.56406,-26.89148 -10.56406,-26.89148 0,0 -4.41622,11.96236 -2.96674,17.80044 1.13908,4.58788 7.63816,6.64607 8.60354,11.27361 1.1021,5.28287 -3.85676,15.72372 -3.85676,15.72372 l 2.37339,40.64433 z"
             style="fill:#44aa00;fill-opacity:1;fill-rule:evenodd;stroke:none;stroke-width:1px;stroke-linecap:butt;stroke-linejoin:miter;stroke-opacity:1" />
        </g>
        <g
           id="g4279"
           inkscape:transform-center-x="-74.081176"
           inkscape:transform-center-y="-84.348184"
           transform="matrix(-1.2864943,0.2634419,0.17536814,1.9326002,155.78741,-951.38265)">
          <path
             sodipodi:nodetypes="sscsscsscsscsccccccsssscsscss"
             inkscape:connector-curvature="0"
             id="path4281"
             transform="translate(0,752.36218)"
             d="m 67.849609,149.33398 c -1.66379,-0.0997 -3.106665,0.19187 -3.371093,1.08399 -1.141139,3.84988 3.690408,16.48274 -0.04883,17.76562 -5.144385,-1.67185 -4.473485,-16.45542 -5.539063,-17.07226 -2.128953,-1.23241 -6.393816,-0.8966 -7.074219,1.86328 -0.878489,3.56336 6.529157,14.98854 2.75586,17.25977 -5.131825,-0.46037 -7.076047,-14.74922 -8.126954,-15.07813 -2.042811,-0.63934 -5.294286,0.67095 -5.908203,3.16406 -0.747045,3.03375 4.147235,12.64113 1.492188,14.24219 -3.917579,-2.3236 -4.503809,-8.14732 -6.910156,-10.5957 -1.168803,-1.18922 -4.133009,1.21065 -3.94336,3.08398 0.674098,6.65872 1.112066,7.81693 -0.455078,8.53516 -1.382842,0.61964 0.105814,-2.1383 -4.619141,-3.98633 -4.048756,-1.58354 -6.611307,6.73776 -9.951171,10.7793 40.658531,-6.46699 58.158166,-5.64464 91.054691,-2.64063 13.82522,0.33486 27.64871,15.34945 30.82492,55.24863 l 4.30005,-2.88601 c -7.95749,-52.39235 -19.47323,-48.17775 -30.25388,-61.05207 -5.0826,1.10838 -6.99988,3.51268 -8.27344,2.53125 -1.25879,-0.98248 -1.83005,-4.81844 3.11329,-6.38672 3.79262,-1.20321 -5.12192,-6.6558 -6.46485,-4.28516 -9.276416,16.37535 -7.163617,9.02554 -5.53125,-3.13281 0.301664,-2.24688 -3.886673,-3.96957 -5.365234,-2.5625 -2.497957,2.37718 -4.078477,15.66501 -7.97461,14.41016 -2.82935,-3.94843 2.653627,-16.21646 2.417969,-16.52539 -1.312152,-1.72014 -4.489938,-3.32674 -5.722656,-1.57422 -2.04304,2.90453 -0.983244,16.46989 -5.080079,16.23437 -3.938591,-3.12605 0.02328,-16.77161 -0.652343,-17.16601 -1.144261,-0.66797 -3.029569,-1.15811 -4.693358,-1.25782 z"
             style="fill:#44aa00;fill-rule:evenodd;stroke:none;stroke-width:1.07702267px;stroke-linecap:butt;stroke-linejoin:miter;stroke-opacity:1" />
          <path
             style="fill:#225500;fill-rule:evenodd;stroke:none;stroke-width:0.86847025px;stroke-linecap:butt;stroke-linejoin:miter;stroke-opacity:1"
             d="m 64.756459,913.38916 c -1.145026,2.49477 2.054877,7.68517 -1.697085,8.5165 -5.161902,-1.08339 -2.841257,-7.66696 -3.910464,-8.06669 -2.136202,-0.79861 -6.414305,-0.58154 -7.097026,1.20689 -0.881479,2.30911 3.253487,5.96775 -0.532659,7.43952 -5.149301,-0.29831 -3.80315,-5.81223 -4.857635,-6.02536 -2.049768,-0.4143 -5.312534,0.4351 -5.928541,2.05066 -0.749589,1.96592 2.513238,6.24343 -0.150851,7.28094 -3.930918,-1.50573 -2.869919,-3.33203 -5.28446,-4.91862 -1.172783,-0.77062 -4.147874,0.78527 -3.957581,1.99922 0.676394,4.31494 1.867619,5.41187 0.295139,5.87729 -1.38755,0.40153 -0.644928,-1.73238 -5.385973,-2.92991 -4.062543,-1.02616 -6.634705,4.36652 -9.985941,6.9855 54.303206,-10.09564 68.91358,-0.21754 104.479268,1.06926 -4.15836,-2.51389 -3.53762,-8.97405 -8.50096,-8.27504 -5.0999,0.71824 -8.24682,2.44856 -9.52471,1.81258 -1.26308,-0.63666 -0.33853,-3.4308 4.62164,-4.44707 3.80553,-0.77971 -5.13886,-4.31307 -6.48637,-2.77686 -9.308001,10.61144 -7.188712,5.84869 -5.550787,-2.03008 0.302692,-1.45601 -3.898869,-2.57293 -5.382466,-1.66112 -2.506463,1.54044 -3.04501,8.95203 -6.95441,8.13886 -2.838984,-2.55863 1.614637,-9.30872 1.378176,-9.50892 -1.31662,-1.11467 -4.505685,-2.15584 -5.742602,-1.02018 -2.049997,1.88217 -0.98592,8.12488 -5.096704,7.97227 -3.952006,-2.02572 0.02224,-8.32088 -0.655683,-8.57646 -2.296316,-0.86569 -7.560654,-1.26939 -8.091313,-0.1132 z"
             id="path4283"
             inkscape:connector-curvature="0"
             sodipodi:nodetypes="ccsscsscsscsccscsssscsscssc" />
        </g>
        <g
           transform="matrix(1.2012302,0.15035308,-0.10037151,1.5667051,78.585396,-586.17695)"
           inkscape:transform-center-y="-65.667011"
           inkscape:transform-center-x="70.705536"
           id="g4263">
          <path
             style="fill:#44aa00;fill-rule:evenodd;stroke:none;stroke-width:1.07702267px;stroke-linecap:butt;stroke-linejoin:miter;stroke-opacity:1"
             d="m 67.372609,895.98751 c -1.665158,-0.11609 -3.107225,0.18515 -3.367079,1.13201 -1.121401,4.08612 3.77926,17.54612 0.0449,18.88736 -5.155813,-1.80862 -4.562589,-17.52182 -5.631962,-18.18407 -2.136535,-1.32315 -6.401786,-0.99198 -7.067969,1.93808 -0.860129,3.78309 6.611562,15.97475 2.84834,18.36655 -5.136854,-0.52055 -7.157466,-15.72363 -8.210641,-16.07968 -2.04722,-0.6921 -5.293427,0.68124 -5.894498,3.32808 -0.731413,3.22083 4.216046,13.46465 1.568103,15.15074 -3.931825,-2.4941 -4.549085,-8.68918 -6.969571,-11.30678 -1.175671,-1.27141 -4.128714,1.26206 -3.929082,3.25485 0.709579,7.08336 1.153881,8.31737 -0.410267,9.07146 -1.380272,0.6504 0.09458,-2.27271 -4.642517,-4.26609 -4.059163,-1.70809 -6.579098,7.12323 -9.899326,11.39978 28.904689,-3.10631 58.157832,-5.64864 91.08687,-2.25552 13.83399,0.4398 27.74371,16.48646 31.13209,58.92481 l 4.287,-3.04222 c -8.23801,-55.74954 -19.73734,-51.33855 -30.59139,-65.09132 -5.07933,1.14758 -6.98489,3.6921 -8.26427,2.64097 -1.26462,-1.05216 -1.85641,-5.13385 3.08116,-6.77122 3.78819,-1.25621 -5.15964,-7.1072 -6.49074,-4.59498 -9.194694,17.35335 -7.119612,9.55215 -5.550581,-3.36419 0.28996,-2.38696 -3.909589,-4.24384 -5.381474,-2.75686 -2.486677,2.51217 -3.997874,16.62965 -7.902602,15.27193 -2.85162,-4.21495 2.569392,-17.22456 2.331985,-17.55443 -1.321895,-1.83674 -4.509768,-3.56407 -5.733862,-1.70833 -2.028747,3.07559 -0.896826,17.50412 -4.996979,17.22889 -3.957083,-3.34735 -0.06522,-17.83071 -0.743263,-18.25412 -1.148365,-0.71709 -3.037215,-1.24961 -4.702373,-1.3657 z"
             id="path4265"
             inkscape:connector-curvature="0"
             sodipodi:nodetypes="sscsscsscsscsccccccsssscsscss" />
          <path
             sodipodi:nodetypes="ccsscsscsscsccscsssscsscssc"
             inkscape:connector-curvature="0"
             id="path4267"
             d="m 63.714593,909.79158 c -1.173208,2.1575 1.961732,6.57043 -1.795798,7.33511 -5.143247,-0.86012 -2.747437,-6.54412 -3.810708,-6.8728 -2.124342,-0.65669 -6.400158,-0.41225 -7.103238,1.13252 -0.907766,1.99451 3.179277,5.07963 -0.619967,6.39464 -5.139937,-0.18625 -3.730155,-4.93864 -4.780926,-5.10731 -2.042547,-0.32789 -5.311651,0.44566 -5.94605,1.8411 -0.77197,1.69808 2.43661,5.32637 -0.236718,6.25331 -3.908667,-1.23944 -2.82729,-2.82186 -5.220344,-4.1513 -1.162348,-0.64571 -4.15245,0.73051 -3.976718,1.7702 0.624638,3.69553 1.80155,4.62117 0.225353,5.04211 -1.390721,0.36357 -0.623725,-1.47863 -5.345243,-2.44247 -4.045809,-0.82589 -5.748582,5.31676 -9.126967,7.61084 35.614612,-4.34475 60.124612,-3.88005 98.008221,-1.01647 -4.12393,-2.10193 1.98218,-8.61809 -2.9838,-7.95057 -5.1026,0.68587 -8.2664,2.21421 -9.53533,1.6855 -1.25412,-0.52948 -0.2976,-2.94101 4.66895,-3.88087 3.81043,-0.7211 -5.08207,-3.63337 -6.446204,-2.29612 -9.422836,9.23707 -7.249669,5.11912 -5.5205,-1.66765 0.319555,-1.25421 -3.864043,-2.15615 -5.356732,-1.35315 -2.521825,1.3566 -3.147342,7.72734 -7.0427,7.08223 -2.805529,-2.15826 1.722806,-8.01417 1.488979,-8.18285 -1.301955,-0.93917 -4.4751,-1.78981 -5.724034,-0.79796 -2.069914,1.64381 -1.080813,6.98922 -5.185132,6.91398 -3.923586,-1.68561 0.120541,-7.14442 -0.553593,-7.35466 -2.283482,-0.71209 -7.53708,-0.98726 -8.080799,0.0126 z"
             style="fill:#225500;fill-rule:evenodd;stroke:none;stroke-width:0.86847025px;stroke-linecap:butt;stroke-linejoin:miter;stroke-opacity:1" />
        </g>
        <g
           id="g4253"
           inkscape:transform-center-x="61.172114"
           inkscape:transform-center-y="-46.491094"
           transform="matrix(1.0216614,0.04859157,-0.04256701,1.1662582,45.368705,-166.09555)">
          <path
             sodipodi:nodetypes="sscsscsscsscsccccccsssscsscss"
             inkscape:connector-curvature="0"
             id="path4175"
             transform="translate(0,752.36218)"
             d="m 67.849609,149.33398 c -1.66379,-0.0997 -3.106665,0.19187 -3.371093,1.08399 -1.141139,3.84988 3.690408,16.48274 -0.04883,17.76562 -5.144385,-1.67185 -4.473485,-16.45542 -5.539063,-17.07226 -2.128953,-1.23241 -6.393816,-0.8966 -7.074219,1.86328 -0.878489,3.56336 6.529157,14.98854 2.75586,17.25977 -5.131825,-0.46037 -7.076047,-14.74922 -8.126954,-15.07813 -2.042811,-0.63934 -5.294286,0.67095 -5.908203,3.16406 -0.747045,3.03375 4.147235,12.64113 1.492188,14.24219 -3.917579,-2.3236 -4.503809,-8.14732 -6.910156,-10.5957 -1.168803,-1.18922 -4.133009,1.21065 -3.94336,3.08398 0.674098,6.65872 1.112066,7.81693 -0.455078,8.53516 -1.382842,0.61964 0.105814,-2.1383 -4.619141,-3.98633 -4.048756,-1.58354 -6.611307,6.73776 -9.951171,10.7793 28.906338,-3.08657 58.158166,-5.64464 91.054691,-2.64063 13.82522,0.33486 27.64871,15.34945 30.82492,55.24863 l 4.30005,-2.88601 c -7.95749,-52.39235 -19.47323,-48.17775 -30.25388,-61.05207 -5.0826,1.10838 -6.99988,3.51268 -8.27344,2.53125 -1.25879,-0.98248 -1.83005,-4.81844 3.11329,-6.38672 3.79262,-1.20321 -5.12192,-6.6558 -6.46485,-4.28516 -9.276416,16.37535 -7.163617,9.02554 -5.53125,-3.13281 0.301664,-2.24688 -3.886673,-3.96957 -5.365234,-2.5625 -2.497957,2.37718 -4.078477,15.66501 -7.97461,14.41016 -2.82935,-3.94843 2.653627,-16.21646 2.417969,-16.52539 -1.312152,-1.72014 -4.489938,-3.32674 -5.722656,-1.57422 -2.04304,2.90453 -0.983244,16.46989 -5.080079,16.23437 -3.938591,-3.12605 0.02328,-16.77161 -0.652343,-17.16601 -1.144261,-0.66797 -3.029569,-1.15811 -4.693358,-1.25782 z"
             style="fill:#44aa00;fill-rule:evenodd;stroke:none;stroke-width:1.07702267px;stroke-linecap:butt;stroke-linejoin:miter;stroke-opacity:1" />
          <path
             style="fill:#225500;fill-rule:evenodd;stroke:none;stroke-width:0.86847025px;stroke-linecap:butt;stroke-linejoin:miter;stroke-opacity:1"
             d="m 64.756459,913.38916 c -1.145026,2.49477 2.054877,7.68517 -1.697085,8.5165 -5.161902,-1.08339 -2.841257,-7.66696 -3.910464,-8.06669 -2.136202,-0.79861 -6.414305,-0.58154 -7.097026,1.20689 -0.881479,2.30911 3.253487,5.96775 -0.532659,7.43952 -5.149301,-0.29831 -3.80315,-5.81223 -4.857635,-6.02536 -2.049768,-0.4143 -5.312534,0.4351 -5.928541,2.05066 -0.749589,1.96592 2.513238,6.24343 -0.150851,7.28094 -3.930918,-1.50573 -2.869919,-3.33203 -5.28446,-4.91862 -1.172783,-0.77062 -4.147874,0.78527 -3.957581,1.99922 0.676394,4.31494 1.867619,5.41187 0.295139,5.87729 -1.38755,0.40153 -0.644928,-1.73238 -5.385973,-2.92991 -4.062543,-1.02616 -6.634705,4.36652 -9.985941,6.9855 35.601837,-4.49764 72.933208,-1.52766 108.498898,-0.24086 -4.15836,-2.51389 -7.55725,-7.66393 -12.52059,-6.96492 -5.0999,0.71824 -8.24682,2.44856 -9.52471,1.81258 -1.26308,-0.63666 -0.33853,-3.4308 4.62164,-4.44707 3.80553,-0.77971 -5.13886,-4.31307 -6.48637,-2.77686 -9.308001,10.61144 -7.188712,5.84869 -5.550787,-2.03008 0.302692,-1.45601 -3.898869,-2.57293 -5.382466,-1.66112 -2.506463,1.54044 -3.04501,8.95203 -6.95441,8.13886 -2.838984,-2.55863 1.614637,-9.30872 1.378176,-9.50892 -1.31662,-1.11467 -4.505685,-2.15584 -5.742602,-1.02018 -2.049997,1.88217 -0.98592,8.12488 -5.096704,7.97227 -3.952006,-2.02572 0.02224,-8.32088 -0.655683,-8.57646 -2.296316,-0.86569 -7.560654,-1.26939 -8.091313,-0.1132 z"
             id="path4248"
             inkscape:connector-curvature="0"
             sodipodi:nodetypes="ccsscsscsscsccscsssscsscssc" />
        </g>
        <g
           inkscape:transform-center-y="-55.570927"
           inkscape:transform-center-x="-72.11575"
           id="g4257"
           transform="matrix(-1.213873,0.0862534,0.07391543,1.3662933,243.94064,-370.1687)">
          <path
             style="fill:#44aa00;fill-rule:evenodd;stroke:none;stroke-width:1.07702267px;stroke-linecap:butt;stroke-linejoin:miter;stroke-opacity:1"
             d="m 67.849609,149.33398 c -1.66379,-0.0997 -3.106665,0.19187 -3.371093,1.08399 -1.141139,3.84988 3.690408,16.48274 -0.04883,17.76562 -5.144385,-1.67185 -4.473485,-16.45542 -5.539063,-17.07226 -2.128953,-1.23241 -6.393816,-0.8966 -7.074219,1.86328 -0.878489,3.56336 6.529157,14.98854 2.75586,17.25977 -5.131825,-0.46037 -7.076047,-14.74922 -8.126954,-15.07813 -2.042811,-0.63934 -5.294286,0.67095 -5.908203,3.16406 -0.747045,3.03375 4.147235,12.64113 1.492188,14.24219 -3.917579,-2.3236 -4.503809,-8.14732 -6.910156,-10.5957 -1.168803,-1.18922 -4.133009,1.21065 -3.94336,3.08398 0.674098,6.65872 1.112066,7.81693 -0.455078,8.53516 -1.382842,0.61964 0.105814,-2.1383 -4.619141,-3.98633 -4.048756,-1.58354 -6.611307,6.73776 -9.951171,10.7793 28.906338,-3.08657 58.158166,-5.64464 91.054691,-2.64063 13.82522,0.33486 27.64871,15.34945 30.82492,55.24863 l 4.30005,-2.88601 c -7.95749,-52.39235 -19.47323,-48.17775 -30.25388,-61.05207 -5.0826,1.10838 -6.99988,3.51268 -8.27344,2.53125 -1.25879,-0.98248 -1.83005,-4.81844 3.11329,-6.38672 3.79262,-1.20321 -5.12192,-6.6558 -6.46485,-4.28516 -9.276416,16.37535 -7.163617,9.02554 -5.53125,-3.13281 0.301664,-2.24688 -3.886673,-3.96957 -5.365234,-2.5625 -2.497957,2.37718 -4.078477,15.66501 -7.97461,14.41016 -2.82935,-3.94843 2.653627,-16.21646 2.417969,-16.52539 -1.312152,-1.72014 -4.489938,-3.32674 -5.722656,-1.57422 -2.04304,2.90453 -0.983244,16.46989 -5.080079,16.23437 -3.938591,-3.12605 0.02328,-16.77161 -0.652343,-17.16601 -1.144261,-0.66797 -3.029569,-1.15811 -4.693358,-1.25782 z"
             transform="translate(0,752.36218)"
             id="path4259"
             inkscape:connector-curvature="0"
             sodipodi:nodetypes="sscsscsscsscsccccccsssscsscss" />
          <path
             sodipodi:nodetypes="ccsscsscsscsccscsssscsscssc"
             inkscape:connector-curvature="0"
             id="path4261"
             d="m 64.756459,913.38916 c -1.145026,2.49477 2.054877,7.68517 -1.697085,8.5165 -5.161902,-1.08339 -2.841257,-7.66696 -3.910464,-8.06669 -2.136202,-0.79861 -6.414305,-0.58154 -7.097026,1.20689 -0.881479,2.30911 3.253487,5.96775 -0.532659,7.43952 -5.149301,-0.29831 -3.80315,-5.81223 -4.857635,-6.02536 -2.049768,-0.4143 -5.312534,0.4351 -5.928541,2.05066 -0.749589,1.96592 2.513238,6.24343 -0.150851,7.28094 -3.930918,-1.50573 -2.869919,-3.33203 -5.28446,-4.91862 -1.172783,-0.77062 -4.147874,0.78527 -3.957581,1.99922 0.676394,4.31494 1.867619,5.41187 0.295139,5.87729 -1.38755,0.40153 -0.644928,-1.73238 -5.385973,-2.92991 -4.062543,-1.02616 -6.634705,4.36652 -9.985941,6.9855 35.601837,-4.49764 72.933208,-1.52766 108.498898,-0.24086 -4.15836,-2.51389 -7.55725,-7.66393 -12.52059,-6.96492 -5.0999,0.71824 -8.24682,2.44856 -9.52471,1.81258 -1.26308,-0.63666 -0.33853,-3.4308 4.62164,-4.44707 3.80553,-0.77971 -5.13886,-4.31307 -6.48637,-2.77686 -9.308001,10.61144 -7.188712,5.84869 -5.550787,-2.03008 0.302692,-1.45601 -3.898869,-2.57293 -5.382466,-1.66112 -2.506463,1.54044 -3.04501,8.95203 -6.95441,8.13886 -2.838984,-2.55863 1.614637,-9.30872 1.378176,-9.50892 -1.31662,-1.11467 -4.505685,-2.15584 -5.742602,-1.02018 -2.049997,1.88217 -0.98592,8.12488 -5.096704,7.97227 -3.952006,-2.02572 0.02224,-8.32088 -0.655683,-8.57646 -2.296316,-0.86569 -7.560654,-1.26939 -8.091313,-0.1132 z"
             style="fill:#225500;fill-rule:evenodd;stroke:none;stroke-width:0.86847025px;stroke-linecap:butt;stroke-linejoin:miter;stroke-opacity:1" />
        </g>
        <g
           transform="matrix(-0.6531414,-0.88919665,-0.82271105,0.83828408,1001.5322,261.09804)"
           inkscape:transform-center-y="45.146873"
           inkscape:transform-center-x="-34.446331"
           id="g4285">
          <path
             style="fill:#44aa00;fill-rule:evenodd;stroke:none;stroke-width:1.07702267px;stroke-linecap:butt;stroke-linejoin:miter;stroke-opacity:1"
             d="m 65.082722,900.7912 c -1.66379,-0.0997 -3.106665,0.19187 -3.371093,1.08399 -1.141139,3.84988 3.690408,16.48274 -0.04883,17.76562 -5.144385,-1.67185 -4.473485,-16.45542 -5.539063,-17.07226 -2.128953,-1.23241 -6.393816,-0.8966 -7.074219,1.86328 -0.878489,3.56336 6.529157,14.98854 2.75586,17.25977 -5.131825,-0.46037 -7.076047,-14.74922 -8.126954,-15.07813 -2.042811,-0.63934 -5.294286,0.67095 -5.908203,3.16406 -0.747045,3.03375 4.147235,12.64113 1.492188,14.24219 -3.917579,-2.3236 -4.503809,-8.14732 -6.910156,-10.5957 -1.168803,-1.18922 -4.133009,1.21065 -3.94336,3.08398 0.674098,6.65872 1.112066,7.81693 -0.455078,8.53516 -1.382842,0.61964 0.105814,-2.1383 -4.619141,-3.98633 -4.048756,-1.58354 -6.611307,6.73776 -9.951171,10.7793 28.906338,-3.08657 81.174289,-3.68954 91.054688,-2.64063 27.62396,14.83792 9.22987,-5.84772 4.87109,-8.68945 -5.0826,1.10838 -6.99988,3.51268 -8.27344,2.53125 -1.258787,-0.98248 -1.830047,-4.81844 3.11329,-6.38672 3.79262,-1.20321 -5.121917,-6.6558 -6.464847,-4.28516 -9.276416,16.37535 -7.163617,9.02554 -5.53125,-3.13281 0.301664,-2.24688 -3.886673,-3.96957 -5.365234,-2.5625 -2.497957,2.37718 -4.078477,15.66501 -7.97461,14.41016 -2.82935,-3.94843 2.653627,-16.21646 2.417969,-16.52539 -1.312152,-1.72014 -4.489938,-3.32674 -5.722656,-1.57422 -2.04304,2.90453 -0.983244,16.46989 -5.080079,16.23437 -3.938591,-3.12605 0.02328,-16.77161 -0.652343,-17.16601 -1.144261,-0.66797 -3.029569,-1.15811 -4.693358,-1.25782 z"
             id="path4287"
             inkscape:connector-curvature="0"
             sodipodi:nodetypes="sscsscsscsscsccccsssscsscss" />
          <path
             style="fill:#225500;fill-rule:evenodd;stroke:none;stroke-width:0.86847025px;stroke-linecap:butt;stroke-linejoin:miter;stroke-opacity:1"
             d="m 75.65036,952.24566 c 1.096422,-2.45708 -2.182391,-7.66765 1.539957,-8.42692 5.16049,1.16695 2.965323,7.66346 4.037338,8.07927 2.141795,0.83073 6.399045,0.69072 7.047477,-1.07313 0.837195,-2.27739 -3.345916,-5.98343 0.39918,-7.37804 5.134083,0.38713 3.890641,5.8387 4.944693,6.06895 2.048929,0.44759 5.283717,-0.33826 5.86874,-1.93163 0.711905,-1.93892 -2.613469,-6.2441 0.0217,-7.22731 3.941865,1.56459 2.917335,3.35938 5.350285,4.9775 1.18172,0.78593 4.1175,-0.70654 3.90653,-1.91535 -0.74989,-4.29668 -1.95574,-5.40697 -0.39773,-5.84136 1.37493,-0.37423 0.67295,1.73163 5.41627,3.00449 4.0645,1.09071 1.94029,-4.24601 5.23195,-6.78749 -17.94107,-12.3507 -74.095434,-7.24796 -105.57774,-1.92948 4.186204,2.56971 9.768224,8.02388 14.699476,7.4174 5.066933,-0.62316 8.170768,-2.28581 9.454815,-1.63171 1.269288,0.6545 0.397746,3.41276 -4.524736,4.33433 -3.776616,0.70706 5.194565,4.37361 6.509592,2.87195 9.083596,-10.37282 7.056839,-5.68082 5.564535,2.11387 -0.27578,1.44048 3.928784,2.62376 5.390379,1.74453 2.469293,-1.4854 2.874839,-8.83561 6.783035,-7.9591 2.872865,2.59085 -1.443849,9.21505 -1.204798,9.41802 1.331064,1.13012 4.525817,2.22031 5.737766,1.11444 2.008605,-1.8328 0.838541,-8.0506 4.935665,-7.82648 3.972045,2.08132 0.124766,8.26225 0.804543,8.52801 2.302458,0.90017 7.55298,1.39399 8.061115,0.25526 z"
             id="path4289"
             inkscape:connector-curvature="0"
             sodipodi:nodetypes="ccsscsscsscsccscsssscsscssc" />
        </g>
        <g
           id="g4269"
           inkscape:transform-center-x="57.885022"
           inkscape:transform-center-y="-19.397091"
           transform="matrix(0.82472513,-0.53607369,0.31693132,1.0750964,-278.59998,4.3629055)">
          <path
             sodipodi:nodetypes="sscsscsscsscsccccccsssscsscss"
             inkscape:connector-curvature="0"
             id="path4271"
             d="m 65.082722,900.7912 c -1.66379,-0.0997 -3.106665,0.19187 -3.371093,1.08399 -1.141139,3.84988 3.690408,16.48274 -0.04883,17.76562 -5.144385,-1.67185 -4.473485,-16.45542 -5.539063,-17.07226 -2.128953,-1.23241 -6.393816,-0.8966 -7.074219,1.86328 -0.878489,3.56336 6.529157,14.98854 2.75586,17.25977 -5.131825,-0.46037 -7.076047,-14.74922 -8.126954,-15.07813 -2.042811,-0.63934 -5.294286,0.67095 -5.908203,3.16406 -0.747045,3.03375 4.147235,12.64113 1.492188,14.24219 -3.917579,-2.3236 -4.503809,-8.14732 -6.910156,-10.5957 -1.168803,-1.18922 -4.133009,1.21065 -3.94336,3.08398 0.674098,6.65872 1.112066,7.81693 -0.455078,8.53516 -1.382842,0.61964 0.105814,-2.1383 -4.619141,-3.98633 -4.048756,-1.58354 -6.611307,6.73776 -9.951171,10.7793 28.906338,-3.08657 58.158166,-5.64464 91.054688,-2.64063 13.82522,0.33486 27.64871,15.34945 30.82492,55.24863 l 4.30005,-2.88601 c -7.95749,-52.39235 -19.47323,-48.17775 -30.25388,-61.05207 -5.0826,1.10838 -6.99988,3.51268 -8.27344,2.53125 -1.258787,-0.98248 -1.830047,-4.81844 3.11329,-6.38672 3.79262,-1.20321 -5.121917,-6.6558 -6.464847,-4.28516 -9.276416,16.37535 -7.163617,9.02554 -5.53125,-3.13281 0.301664,-2.24688 -3.886673,-3.96957 -5.365234,-2.5625 -2.497957,2.37718 -4.078477,15.66501 -7.97461,14.41016 -2.82935,-3.94843 2.653627,-16.21646 2.417969,-16.52539 -1.312152,-1.72014 -4.489938,-3.32674 -5.722656,-1.57422 -2.04304,2.90453 -0.983244,16.46989 -5.080079,16.23437 -3.938591,-3.12605 0.02328,-16.77161 -0.652343,-17.16601 -1.144261,-0.66797 -3.029569,-1.15811 -4.693358,-1.25782 z"
             style="fill:#44aa00;fill-rule:evenodd;stroke:none;stroke-width:1.07702267px;stroke-linecap:butt;stroke-linejoin:miter;stroke-opacity:1" />
          <path
             sodipodi:nodetypes="ccsscsscsscsccscsssscsscssc"
             inkscape:connector-curvature="0"
             id="path4275"
             d="m 75.65036,952.24566 c 1.096422,-2.45708 -2.182391,-7.66765 1.539957,-8.42692 5.16049,1.16695 2.965323,7.66346 4.037338,8.07927 2.141795,0.83073 6.399045,0.69072 7.047477,-1.07313 0.837195,-2.27739 -3.345916,-5.98343 0.39918,-7.37804 5.134083,0.38713 3.890641,5.8387 4.944693,6.06895 2.048929,0.44759 5.283717,-0.33826 5.86874,-1.93163 0.711905,-1.93892 -2.613469,-6.2441 0.0217,-7.22731 3.941865,1.56459 2.917335,3.35938 5.350285,4.9775 1.18172,0.78593 4.1175,-0.70654 3.90653,-1.91535 -0.74989,-4.29668 -1.95574,-5.40697 -0.39773,-5.84136 1.37493,-0.37423 0.67295,1.73163 5.41627,3.00449 4.0645,1.09071 1.94029,-4.24601 5.23195,-6.78749 -17.94107,-12.3507 -71.989699,-6.96779 -103.472005,-1.64931 4.186204,2.56971 7.662489,7.74371 12.593741,7.13723 5.066933,-0.62316 8.170768,-2.28581 9.454815,-1.63171 1.269288,0.6545 0.397746,3.41276 -4.524736,4.33433 -3.776616,0.70706 5.194565,4.37361 6.509592,2.87195 9.083596,-10.37282 7.056839,-5.68082 5.564535,2.11387 -0.27578,1.44048 3.928784,2.62376 5.390379,1.74453 2.469293,-1.4854 2.874839,-8.83561 6.783035,-7.9591 2.872865,2.59085 -1.443849,9.21505 -1.204798,9.41802 1.331064,1.13012 4.525817,2.22031 5.737766,1.11444 2.008605,-1.8328 0.838541,-8.0506 4.935665,-7.82648 3.972045,2.08132 0.124766,8.26225 0.804543,8.52801 2.302458,0.90017 7.55298,1.39399 8.061115,0.25526 z"
             style="fill:#225500;fill-rule:evenodd;stroke:none;stroke-width:0.86847025px;stroke-linecap:butt;stroke-linejoin:miter;stroke-opacity:1" />
        </g>
      </g>
    </g>
  </g>
</svg>
